<svg xmlns="http://www.w3.org/2000/svg" xmlns:xlink="http://www.w3.org/1999/xlink" width="50" height="50"
     viewBox="0 0 50 50" fill="none">
    <defs>
        <path id="a" d="M0 0h18.571v26H0z"/>
    </defs>
    <path fill-rule="evenodd" d="M25 0C11.19 0 0 11.19 0 25s11.19 25 25 25 25-11.19 25-25S38.81 0 25 0z"
          fill="#36b8dd"/>
    <circle cx="25" cy="25" r="22" stroke="#e7f5fb" stroke-width="6"/>
    <g transform="translate(15.714 12)">
        <mask id="b" fill="#fff">
            <use xlink:href="#a"/>
        </mask>
        <g mask="url(#b)">
            <path fill-rule="evenodd"
                  d="M7.74 0v2.14c-3.82.7-6.71 3.95-6.71 7.86v9H0v2h18.57v-2h-1.03v-9c0-3.9-2.89-7.16-6.71-7.86V0H7.74zm5.669 22h-8.25c0 2.21 1.85 4 4.13 4s4.12-1.79 4.12-4zm-2.06-5h2.06V9.5h-2.06V17z"
                  fill="#fff"/>
        </g>
    </g>
</svg>