<svg xmlns="http://www.w3.org/2000/svg" width="70" height="110" viewBox="0 0 70 110" fill="none"><g fill="#fff"><path d="M0 2.5q0-.123.012-.245t.036-.243q.024-.12.06-.238.035-.117.082-.23.047-.114.105-.222.058-.109.126-.21.069-.103.146-.198Q.645.819.732.732.82.645.914.567q.095-.077.197-.146.102-.068.21-.126.109-.058.222-.105.114-.047.231-.082.118-.036.238-.06t.243-.036Q2.377 0 2.5 0t.245.012q.122.012.243.036.12.024.238.06.117.035.23.082.114.047.222.105.109.058.21.126.103.069.198.146.095.078.182.165.087.087.165.182.077.095.146.197.068.102.126.21.058.109.105.222.047.114.082.231.036.118.06.238t.036.243Q5 2.377 5 2.5q0 2.373.72 5.026.662 2.441 1.979 5.27 1.123 2.413 2.895 5.455 1.079 1.853 3.396 5.582 2.325 3.741 3.421 5.622 1.855 3.182 3.053 5.744 1.469 3.144 2.229 5.922.877 3.21.877 6.158h.001q0 .123-.012.245-.012.123-.036.243-.024.12-.06.238-.035.118-.082.231-.047.114-.105.222-.058.108-.126.21t-.146.197q-.078.095-.165.182-.087.087-.182.165-.095.078-.197.146-.102.068-.21.126-.108.058-.222.105-.113.047-.23.083-.118.035-.239.06-.12.023-.242.035-.123.012-.246.012-.122 0-.245-.012-.122-.012-.242-.036-.12-.024-.238-.06-.118-.035-.231-.082-.114-.047-.222-.105-.108-.058-.21-.126t-.197-.146q-.095-.078-.182-.165-.087-.086-.165-.181-.078-.095-.146-.197-.068-.102-.126-.21-.058-.11-.105-.222-.047-.114-.083-.231-.035-.118-.06-.238-.023-.12-.035-.243-.012-.122-.013-.245h-.001q0-2.278-.7-4.84-.647-2.367-1.936-5.124-1.101-2.357-2.842-5.342-1.061-1.82-3.349-5.502-2.355-3.79-3.47-5.705-1.887-3.24-3.107-5.861Q1.669 11.69.894 8.835 0 5.54 0 2.5z"/><path d="M2.081 4.044q-.076-.097-.142-.2-.066-.104-.121-.213-.056-.11-.1-.224-.045-.115-.078-.233-.033-.118-.054-.24-.022-.12-.031-.243-.01-.122-.007-.245t.017-.244q.015-.122.042-.242.026-.12.064-.237.039-.117.088-.229.05-.112.11-.22.06-.106.13-.207.07-.1.15-.194.08-.093.169-.178.089-.085.185-.16.097-.077.2-.143.104-.066.213-.121.11-.056.224-.1.115-.045.233-.078.118-.033.24-.055.12-.021.243-.03.122-.01.245-.007.123.002.245.017.122.014.242.041.12.027.236.065.117.038.23.087.112.05.219.11t.208.13q.1.07.193.15.094.08.179.17.085.088.16.185L4.049 2.5 6.014.956q.868 1.106 3.245 1.984 1.054.389 2.494.76.882.227 2.612.612 1.877.418 2.67.642 9.858 2.79 17.489 4.166 9.371 1.69 17.5 1.69v-.001q.123 0 .245.012t.243.036q.12.024.238.06.117.035.23.082.114.047.222.105.109.058.21.126.103.068.198.146.095.078.182.165.086.087.164.182.078.095.147.197.068.102.126.21.058.109.105.222.047.114.082.231.036.118.06.238t.036.243q.012.122.012.245 0 .122-.012.245-.012.122-.036.242-.024.12-.06.238-.035.117-.082.23-.047.114-.105.222-.058.108-.126.21-.068.103-.146.197-.077.095-.164.182-.087.087-.182.165-.094.078-.196.146-.102.068-.21.126-.109.058-.222.105-.113.047-.23.083-.118.036-.238.06t-.243.036q-.122.013-.244.013v.001q-8.578 0-18.392-1.77-7.87-1.419-17.957-4.274-.66-.186-2.4-.573-1.811-.403-2.774-.651-1.686-.435-2.978-.912-1.668-.616-2.911-1.382-1.558-.96-2.534-2.204z"/><path d="M2.922 10.909q-.22-.11-.414-.263-.194-.151-.354-.338-.161-.186-.282-.4-.122-.215-.199-.449-.077-.233-.107-.478-.03-.244-.012-.49.019-.245.085-.483.065-.237.176-.457.111-.22.263-.414.151-.194.338-.354.186-.161.4-.282.215-.122.449-.199.234-.077.478-.107.244-.03.49-.012.245.019.483.084.237.066.457.177 7.589 3.825 16.123 10.59 8.05 6.381 15.886 14.525 7.704 8.008 13.926 16.39 6.406 8.629 10.18 16.237 3.006 6.056 5.144 13.13 1.727 5.714 3.258 13.445.421 2.136.268 9.812-.046 2.342-.139 4.928-.03.83-.06 1.546l-.017.424-.006.114q0 .025-.002.04 0 .025-.003.048-.01.143-.036.283-.035.187-.097.366-.129.366-.363.677-.372.495-.932.76-.487.228-1.026.237-.566.01-1.08-.227-.634-.29-1.026-.866-.16-.234-.263-.5-.081-.207-.124-.426-.026-.136-.038-.274-.008-.101-.008-.203h-.001q0-.095.007-.19 0-.024.003-.06l.017-.41q.029-.702.058-1.518.091-2.546.137-4.85.064-3.19.028-5.372-.043-2.561-.202-3.368-1.483-7.49-3.14-12.97-2.016-6.672-4.837-12.355-3.575-7.208-9.714-15.477-6.032-8.126-13.515-15.904-7.602-7.901-15.39-14.074-8.133-6.448-15.267-10.043l1.126-2.233-1.126 2.233zm61.956 95.763q.064-.182.155-.352.09-.17.207-.325.116-.154.255-.289.138-.134.296-.246.157-.112.33-.198.173-.086.357-.144.184-.059.375-.089.19-.03.384-.03.122 0 .245.013.122.012.242.036.12.024.238.06.117.035.23.082.114.047.222.104.109.058.21.126.103.069.198.146.095.078.181.165.087.087.165.181.078.095.146.197.069.102.127.21.057.109.105.222.047.113.082.23.036.118.06.238t.036.243q.013.122.013.245 0-.103-.008-.206-.011-.139-.038-.275-.043-.218-.123-.426-.104-.265-.264-.5-.392-.576-1.025-.866-.515-.236-1.081-.227-.539.009-1.026.238-.56.264-.932.759-.234.31-.362.678z"/></g></svg>