<svg xmlns="http://www.w3.org/2000/svg" width="227" height="122" viewBox="0 0 227 122" fill="none"><path d="M99.13 121.003q-.348 0-.616-.05-.26-.048-.502-.145-.279-.113-.522-.288-.506-.363-.783-.918-.203-.406-.25-.858-.047-.451.067-.89.156-.6.574-1.06.312-.341.728-.552.39-.197 1.062-.313.633-.11 1.878-.262 3.046-.374 4.074-.374 2.792 0 5.34-.27 1.511-.16 2.618-.396 1.103-.236 1.638-.502l.373-.186.414-.055q2.494-.328 6.938-.867 5.64-.685 8.19-1.063 4.086-.605 7.342-1.363 3.755-.874 7.467-2.183 3.988-1.405 8.51-3.511 3.773-2.115 9.67-5.44 6.727-3.791 9.615-5.388 4.504-2.49 8.863-4.78 2.812-1.478 5.797-3.533 1.208-.832 2.656-1.9.876-.649 2.612-1.962 1.722-1.304 2.602-1.954 1.48-1.095 2.724-1.954 3.145-2.171 6.118-3.751 1.854-.982 4.32-3.305 2.46-2.318 4.897-5.38 2.46-3.092 4.268-6.155 1.86-3.15 2.6-5.55.911-2.962.41-6.03-.468-2.856-2.194-6.027-1.535-2.82-4.252-6.202-1.959-2.437-5.508-6.303-1.368-1.533-3.929-3.247-2.506-1.68-6.049-3.465-6.552-3.303-15.767-6.578-8.236-2.926-16.456-5.094-3.779-.997-6.94-1.66-3.11-.651-5.204-.893-31.757-3.656-56.087-3.317-16.666.231-29.579 2.327-14.745 2.393-24.3 7.163-3.202 1.601-5.491 2.821-3.064 1.632-5.55 3.131-6.072 3.66-9.762 7.172-3.005 2.851-6.54 7.503-2.559 3.367-5.953 8.462Q3.081 55.86 5.6 66.03q2.18 8.805 12.476 16.616 4.582 3.475 10.813 6.788 5.483 2.915 12.399 5.783 5.666 2.35 12.825 4.878 4.226 1.493 12.113 4.113l1.634.543q.116.04.228.09.112.05.218.11.107.062.207.133.1.07.193.15.093.082.177.17.085.09.16.187t.14.2q.066.105.121.215.055.109.1.224.043.115.075.233.033.119.054.24.02.12.029.243.009.123.005.245-.003.123-.018.245-.016.122-.043.24-.027.12-.066.238-.038.116-.088.228-.05.112-.111.219t-.132.207q-.07.1-.151.193-.08.093-.17.178-.089.084-.186.159-.097.076-.2.14-.105.067-.215.122-.11.055-.224.099-.115.044-.233.076-.119.032-.24.053-.12.02-.243.03-.123.008-.246.005-.122-.003-.244-.018-.122-.016-.242-.043-.12-.027-.236-.066v-.001l-1.63-.542q-7.931-2.635-12.201-4.143-7.285-2.573-13.075-4.974-7.138-2.96-12.83-5.987-6.587-3.502-11.488-7.22Q3.35 77.751.746 67.231-2.302 54.92 7.1 40.837q3.48-5.225 6.132-8.716 3.782-4.975 7.075-8.1 4.087-3.89 10.628-7.832 2.6-1.567 5.78-3.262 2.346-1.25 5.609-2.881Q52.56 4.935 68.056 2.42 81.333.266 98.367.03q24.651-.344 56.73 3.35 2.321.267 5.656.966 3.286.689 7.19 1.718 8.421 2.221 16.854 5.218 9.511 3.38 16.344 6.824 8.095 4.081 11.411 7.796 1.738 1.894 2.924 3.241 1.57 1.785 2.797 3.311 2.997 3.73 4.747 6.943 2.132 3.917 2.736 7.612.691 4.224-.567 8.31-.913 2.96-3.07 6.617-1.986 3.363-4.663 6.727-2.66 3.342-5.38 5.907-2.958 2.785-5.403 4.08-2.717 1.444-5.623 3.45-1.177.814-2.592 1.86-.858.634-2.558 1.921-1.758 1.33-2.658 1.996-1.515 1.118-2.792 1.998-3.23 2.223-6.308 3.841-4.31 2.264-8.768 4.728-2.87 1.588-9.579 5.37-5.964 3.362-9.763 5.49l-.08.045-.085.039q-4.79 2.236-9.045 3.736-3.972 1.4-7.995 2.336-3.455.805-7.743 1.44-2.616.388-8.32 1.08-4.098.497-6.519.813-1.937.82-5.539 1.202-2.81.298-5.866.298-.285 0-1.316.099-1.015.098-2.15.237-.763.094-1.243.165-.479.209-1 .209h-.001z" fill="#fff"/></svg>