<svg xmlns="http://www.w3.org/2000/svg" xmlns:xlink="http://www.w3.org/1999/xlink" width="50" height="50"
     viewBox="0 0 50 50" fill="none">
    <defs>
        <path id="a" d="M0 0h23.864v21H0z"/>
    </defs>
    <path fill-rule="evenodd" d="M25 0C11.19 0 0 11.19 0 25s11.19 25 25 25 25-11.19 25-25S38.81 0 25 0z"
          fill="#f45a9a"/>
    <circle cx="25" cy="25" r="22" stroke="#fceaf2" stroke-width="6"/>
    <g transform="translate(13.068 16)">
        <mask id="b" fill="#fff">
            <use xlink:href="#a"/>
        </mask>
        <g mask="url(#b)">
            <path fill-rule="evenodd"
                  d="M12.98 20.57l.02-.02 8.93-9.16a6.724 6.724 0 0 0 0-9.44c-2.57-2.59-6.74-2.6-9.31-.02l-.03.03-.66.66-.66-.67a6.558 6.558 0 0 0-9.31-.02l-.03.02c-2.57 2.61-2.57 6.83 0 9.44l8.94 9.16c.57.59 1.52.6 2.11.02z"
                  fill="#fff"/>
        </g>
    </g>
</svg>