<svg xmlns="http://www.w3.org/2000/svg" xmlns:xlink="http://www.w3.org/1999/xlink" width="40" height="40" viewBox="0 0 40 40" fill="none"><defs><path id="a" d="M0 0h40v40H0z"/></defs><g><mask id="b" fill="#fff"><use xlink:href="#a"/></mask><g mask="url(#b)"><path fill-rule="evenodd" d="M22.5 33.09l-.01-.01c-.15-.15-.26-.33-.33-.53-.06-.2-.08-.41-.05-.62l-.03-8.17c-9.2 0-17.52 6.6-19.17 15.28a20.626 20.626 0 0 1-1.74-8.3c0-11.51 9.37-20.84 20.94-20.84V1.71c-.03-.21-.01-.42.05-.62.07-.2.18-.38.33-.53.27-.26.63-.41 1-.41s.73.15 1 .41l13.93 15.2c.14.14.24.31.31.49s.1.38.09.57c.01.2-.02.39-.09.57-.07.19-.17.35-.31.49L24.57 33c-.26.31-.63.52-1.07.52-.18 0-.37-.04-.54-.11-.17-.08-.33-.18-.46-.32z" fill="#fff"/></g></g></svg>